<mxfile host="Electron" modified="2023-06-10T03:04:05.040Z" agent="Mozilla/5.0 (Windows NT 10.0; Win64; x64) AppleWebKit/537.36 (KHTML, like Gecko) draw.io/21.1.2 Chrome/106.0.5249.199 Electron/21.4.3 Safari/537.36" etag="VzHrSEAsEYU2_5rStpjh" version="21.1.2" type="device">
  <diagram name="第 1 页" id="3cyuAxOPQC5uuOKO5Erk">
    <mxGraphModel dx="1036" dy="614" grid="1" gridSize="10" guides="1" tooltips="1" connect="1" arrows="1" fold="1" page="1" pageScale="1" pageWidth="583" pageHeight="827" math="0" shadow="0">
      <root>
        <mxCell id="0" />
        <mxCell id="1" parent="0" />
        <mxCell id="YM2QtgB6vOu2ZBDn0sza-9" style="edgeStyle=orthogonalEdgeStyle;rounded=0;orthogonalLoop=1;jettySize=auto;html=1;exitX=0.5;exitY=1;exitDx=0;exitDy=0;entryX=0.5;entryY=0;entryDx=0;entryDy=0;" edge="1" parent="1" source="YM2QtgB6vOu2ZBDn0sza-1" target="YM2QtgB6vOu2ZBDn0sza-2">
          <mxGeometry relative="1" as="geometry" />
        </mxCell>
        <mxCell id="YM2QtgB6vOu2ZBDn0sza-1" value="删除pod命令" style="rounded=0;whiteSpace=wrap;html=1;" vertex="1" parent="1">
          <mxGeometry x="120" y="20" width="80" height="40" as="geometry" />
        </mxCell>
        <mxCell id="YM2QtgB6vOu2ZBDn0sza-10" style="edgeStyle=orthogonalEdgeStyle;rounded=0;orthogonalLoop=1;jettySize=auto;html=1;exitX=0.5;exitY=1;exitDx=0;exitDy=0;entryX=0.5;entryY=0;entryDx=0;entryDy=0;" edge="1" parent="1" source="YM2QtgB6vOu2ZBDn0sza-2" target="YM2QtgB6vOu2ZBDn0sza-3">
          <mxGeometry relative="1" as="geometry" />
        </mxCell>
        <mxCell id="YM2QtgB6vOu2ZBDn0sza-2" value="Pod标记为&lt;br&gt;Terminating" style="rounded=0;whiteSpace=wrap;html=1;" vertex="1" parent="1">
          <mxGeometry x="120" y="80" width="80" height="40" as="geometry" />
        </mxCell>
        <mxCell id="YM2QtgB6vOu2ZBDn0sza-11" style="edgeStyle=orthogonalEdgeStyle;rounded=0;orthogonalLoop=1;jettySize=auto;html=1;exitX=0.5;exitY=1;exitDx=0;exitDy=0;entryX=0.5;entryY=0;entryDx=0;entryDy=0;" edge="1" parent="1" source="YM2QtgB6vOu2ZBDn0sza-3" target="YM2QtgB6vOu2ZBDn0sza-4">
          <mxGeometry relative="1" as="geometry" />
        </mxCell>
        <mxCell id="YM2QtgB6vOu2ZBDn0sza-3" value="Service移除Pod的endpoint" style="rounded=0;whiteSpace=wrap;html=1;" vertex="1" parent="1">
          <mxGeometry x="115" y="140" width="90" height="40" as="geometry" />
        </mxCell>
        <mxCell id="YM2QtgB6vOu2ZBDn0sza-12" style="edgeStyle=orthogonalEdgeStyle;rounded=0;orthogonalLoop=1;jettySize=auto;html=1;exitX=1;exitY=0.5;exitDx=0;exitDy=0;entryX=0;entryY=0.5;entryDx=0;entryDy=0;" edge="1" parent="1" source="YM2QtgB6vOu2ZBDn0sza-4" target="YM2QtgB6vOu2ZBDn0sza-8">
          <mxGeometry relative="1" as="geometry" />
        </mxCell>
        <mxCell id="YM2QtgB6vOu2ZBDn0sza-13" style="edgeStyle=orthogonalEdgeStyle;rounded=0;orthogonalLoop=1;jettySize=auto;html=1;exitX=0.5;exitY=1;exitDx=0;exitDy=0;entryX=0.5;entryY=0;entryDx=0;entryDy=0;" edge="1" parent="1" source="YM2QtgB6vOu2ZBDn0sza-4" target="YM2QtgB6vOu2ZBDn0sza-6">
          <mxGeometry relative="1" as="geometry" />
        </mxCell>
        <mxCell id="YM2QtgB6vOu2ZBDn0sza-4" value="执行pod的preStop" style="rounded=0;whiteSpace=wrap;html=1;" vertex="1" parent="1">
          <mxGeometry x="120" y="210" width="80" height="40" as="geometry" />
        </mxCell>
        <mxCell id="YM2QtgB6vOu2ZBDn0sza-14" style="edgeStyle=orthogonalEdgeStyle;rounded=0;orthogonalLoop=1;jettySize=auto;html=1;exitX=0.5;exitY=1;exitDx=0;exitDy=0;" edge="1" parent="1" source="YM2QtgB6vOu2ZBDn0sza-6" target="YM2QtgB6vOu2ZBDn0sza-7">
          <mxGeometry relative="1" as="geometry" />
        </mxCell>
        <mxCell id="YM2QtgB6vOu2ZBDn0sza-6" value="preStop超时，发送SIGTERM并等待2秒" style="rounded=0;whiteSpace=wrap;html=1;" vertex="1" parent="1">
          <mxGeometry x="100" y="280" width="120" height="40" as="geometry" />
        </mxCell>
        <mxCell id="YM2QtgB6vOu2ZBDn0sza-7" value="强制终止" style="rounded=0;whiteSpace=wrap;html=1;" vertex="1" parent="1">
          <mxGeometry x="120" y="350" width="80" height="40" as="geometry" />
        </mxCell>
        <mxCell id="YM2QtgB6vOu2ZBDn0sza-8" value="正常终止" style="rounded=0;whiteSpace=wrap;html=1;" vertex="1" parent="1">
          <mxGeometry x="232" y="210" width="88" height="40" as="geometry" />
        </mxCell>
      </root>
    </mxGraphModel>
  </diagram>
</mxfile>
